PathFileType        4      (X/Y/Z)      C:\Users\u0101727\OneDrive - KU Leuven\reference_data\TRC\gait_25.trc         																																																																																																																																																																																		
DataRate	CameraRate	NumFrames	NumMarkers	Units	OrigDataRate	OrigDataStartFrame	OrigNumFrames																																																																																																																																																																											
100	100	5	59	m	100	369	421																																																																																																																																																																											
Frame#	Time	LASI			RASI			LKNE			LKNE_med			LTHI1			LTHI2			LTHI3			LANK			LANK_med			LTIB1			LTIB2			LTIB3			foot_l5			foot_l6			foot_l8			foot_l9			RKNE			RTHI2			RTHI3			RANK			RTIB1			RTIB2			RTIB3			Foot_r3			Foot_r4			Foot_r5			Foot_r6			Foot_r7			Foot_r8			Foot_r9			RSHO			LSHO			CLAV			hum_l2			rad_l2			LW1			LH			hum_r2			RELB			rad_r2			RW2			RW1			RH			foot_l7			LW2			foot_l4			RTHI1			RKNE_med			RANK_med			RPSI			Foot_r10			LPSI			Foot_r2			Foot_r1			foot_l1			foot_l2			foot_l3			LELB			foot_l10		
		X1	Y1	Z1	X2	Y2	Z2	X3	Y3	Z3	X4	Y4	Z4	X5	Y5	Z5	X6	Y6	Z6	X7	Y7	Z7	X8	Y8	Z8	X9	Y9	Z9	X10	Y10	Z10	X11	Y11	Z11	X12	Y12	Z12	X13	Y13	Z13	X14	Y14	Z14	X15	Y15	Z15	X16	Y16	Z16	X17	Y17	Z17	X18	Y18	Z18	X19	Y19	Z19	X20	Y20	Z20	X21	Y21	Z21	X22	Y22	Z22	X23	Y23	Z23	X24	Y24	Z24	X25	Y25	Z25	X26	Y26	Z26	X27	Y27	Z27	X28	Y28	Z28	X29	Y29	Z29	X30	Y30	Z30	X31	Y31	Z31	X32	Y32	Z32	X33	Y33	Z33	X34	Y34	Z34	X35	Y35	Z35	X36	Y36	Z36	X37	Y37	Z37	X38	Y38	Z38	X39	Y39	Z39	X40	Y40	Z40	X41	Y41	Z41	X42	Y42	Z42	X43	Y43	Z43	X44	Y44	Z44	X45	Y45	Z45	X46	Y46	Z46	X47	Y47	Z47	X48	Y48	Z48	X49	Y49	Z49	X50	Y50	Z50	X51	Y51	Z51	X52	Y52	Z52	X53	Y53	Z53	X54	Y54	Z54	X55	Y55	Z55	X56	Y56	Z56	X57	Y57	Z57	X58	Y58	Z58	X59	Y59	Z59
369	3.69	2.2965	0.91876	-0.3424	2.273	0.91626	-0.087706	2.2261	0.42989	-0.33949	NaN	NaN	NaN	2.321	0.65	-0.33716	NaN	NaN	NaN	NaN	NaN	NaN	NaN	NaN	NaN	NaN	NaN	NaN	2.181	0.23904	-0.33758	NaN	NaN	NaN	NaN	NaN	NaN	2.2056	0.0054257	-0.33575	2.2253	0.01524	-0.28679	NaN	NaN	NaN	2.154	0.022842	-0.24231	NaN	NaN	NaN	NaN	NaN	NaN	2.284	0.68616	-0.011097	2.2755	0.071129	-0.10759	2.3493	0.27529	-0.070777	NaN	NaN	NaN	NaN	NaN	NaN	2.2857	0.046083	-0.11224	2.3125	0.026713	-0.095674	2.376	0.015243	-0.064366	2.4186	0.025826	-0.09815	NaN	NaN	NaN	NaN	NaN	NaN	NaN	NaN	NaN	2.1699	1.3614	-0.038834	2.2289	1.3682	-0.38624	NaN	NaN	NaN	NaN	NaN	NaN	2.2628	0.96578	-0.48651	2.3439	0.86276	-0.45875	2.3526	0.80717	-0.50536	2.1212	1.2134	-0.015294	2.0747	1.0688	-0.0077764	2.115	0.92885	0.052041	2.105	0.84441	0.071416	2.1718	0.84765	0.058477	2.1466	0.80364	0.09793	2.2512	0.010087	-0.24662	NaN	NaN	NaN	NaN	NaN	NaN	NaN	NaN	NaN	NaN	NaN	NaN	NaN	NaN	NaN	NaN	NaN	NaN	NaN	NaN	NaN	NaN	NaN	NaN	NaN	NaN	NaN	2.2424	0.072954	-0.15876	NaN	NaN	NaN	NaN	NaN	NaN	NaN	NaN	NaN	NaN	NaN	NaN	NaN	NaN	NaN
370	3.7	NaN	NaN	NaN	2.284	0.91585	-0.086172	2.2285	0.42948	-0.33938	NaN	NaN	NaN	2.3295	0.64916	-0.33574	NaN	NaN	NaN	NaN	NaN	NaN	NaN	NaN	NaN	NaN	NaN	NaN	2.1822	0.23926	-0.33719	NaN	NaN	NaN	NaN	NaN	NaN	2.2053	0.005317	-0.33575	2.2252	0.015281	-0.28682	NaN	NaN	NaN	2.1541	0.02333	-0.24213	NaN	NaN	NaN	NaN	NaN	NaN	2.2949	0.68656	-0.0086661	2.3125	0.065236	-0.10389	2.371	0.27393	-0.067436	NaN	NaN	NaN	NaN	NaN	NaN	2.3239	0.040457	-0.10796	2.3521	0.02313	-0.090738	2.4154	0.015358	-0.059042	2.4576	0.028382	-0.092065	NaN	NaN	NaN	NaN	NaN	NaN	NaN	NaN	NaN	2.1794	1.3606	-0.037863	2.2404	1.3675	-0.38458	NaN	NaN	NaN	NaN	NaN	NaN	2.2777	0.96613	-0.48518	2.3604	0.86467	-0.45653	2.3703	0.80918	-0.50298	2.1302	1.2129	-0.014681	2.0833	1.0684	-0.0074556	2.1222	0.92822	0.053011	2.1116	0.84395	0.072311	2.1783	0.84668	0.06006	2.1525	0.80283	0.099395	2.2512	0.010084	-0.24665	NaN	NaN	NaN	NaN	NaN	NaN	NaN	NaN	NaN	NaN	NaN	NaN	NaN	NaN	NaN	NaN	NaN	NaN	NaN	NaN	NaN	NaN	NaN	NaN	NaN	NaN	NaN	NaN	NaN	NaN	NaN	NaN	NaN	NaN	NaN	NaN	NaN	NaN	NaN	NaN	NaN	NaN	NaN	NaN	NaN
371	3.71	NaN	NaN	NaN	2.2948	0.91489	-0.084628	2.2312	0.42915	-0.33911	NaN	NaN	NaN	NaN	NaN	NaN	NaN	NaN	NaN	NaN	NaN	NaN	NaN	NaN	NaN	NaN	NaN	NaN	2.1833	0.23945	-0.33699	NaN	NaN	NaN	NaN	NaN	NaN	2.2053	0.0053813	-0.33574	2.2252	0.015237	-0.28691	NaN	NaN	NaN	2.1542	0.023704	-0.24202	NaN	NaN	NaN	NaN	NaN	NaN	NaN	NaN	NaN	2.348	0.059461	-0.101	2.3922	0.27294	-0.064183	NaN	NaN	NaN	NaN	NaN	NaN	2.3617	0.036486	-0.10426	2.3894	0.019131	-0.087748	2.4535	0.016596	-0.053671	2.4959	0.032546	-0.086233	NaN	NaN	NaN	NaN	NaN	NaN	NaN	NaN	NaN	2.1889	1.3597	-0.036808	2.2518	1.3668	-0.38309	NaN	NaN	NaN	NaN	NaN	NaN	2.2926	0.96632	-0.48359	2.3767	0.86632	-0.45429	2.3879	0.81104	-0.50063	2.1392	1.2121	-0.014034	2.0921	1.0677	-0.0072659	2.1295	0.92744	0.05391	2.118	0.84321	0.073105	2.1851	0.84554	0.061715	2.1584	0.80184	0.1008	2.2512	0.010081	-0.24663	NaN	NaN	NaN	NaN	NaN	NaN	NaN	NaN	NaN	NaN	NaN	NaN	NaN	NaN	NaN	NaN	NaN	NaN	NaN	NaN	NaN	NaN	NaN	NaN	NaN	NaN	NaN	NaN	NaN	NaN	NaN	NaN	NaN	NaN	NaN	NaN	NaN	NaN	NaN	NaN	NaN	NaN	NaN	NaN	NaN
372	3.72	NaN	NaN	NaN	2.3061	0.91392	-0.083042	2.2342	0.42875	-0.33881	NaN	NaN	NaN	NaN	NaN	NaN	NaN	NaN	NaN	NaN	NaN	NaN	NaN	NaN	NaN	NaN	NaN	NaN	2.1846	0.23989	-0.33681	NaN	NaN	NaN	NaN	NaN	NaN	2.205	0.005359	-0.33566	2.2251	0.015273	-0.28684	NaN	NaN	NaN	2.1541	0.023631	-0.24209	NaN	NaN	NaN	NaN	NaN	NaN	NaN	NaN	NaN	2.3834	0.05614	-0.097061	2.4125	0.27201	-0.060455	NaN	NaN	NaN	NaN	NaN	NaN	2.3985	0.033592	-0.09947	NaN	NaN	NaN	2.4914	0.020162	-0.048296	2.5325	0.03799	-0.080502	NaN	NaN	NaN	NaN	NaN	NaN	NaN	NaN	NaN	2.1985	1.3587	-0.035657	2.2631	1.3657	-0.38141	NaN	NaN	NaN	NaN	NaN	NaN	2.3073	0.96632	-0.48196	2.3927	0.86769	-0.45189	2.4051	0.81267	-0.49815	2.1486	1.2113	-0.013136	2.1013	1.0669	-0.0066657	2.1371	0.92655	0.054968	2.1252	0.84249	0.074836	2.1918	0.84405	0.06323	2.1643	0.80063	0.102	2.2511	0.010045	-0.24673	NaN	NaN	NaN	NaN	NaN	NaN	NaN	NaN	NaN	NaN	NaN	NaN	NaN	NaN	NaN	NaN	NaN	NaN	NaN	NaN	NaN	NaN	NaN	NaN	NaN	NaN	NaN	NaN	NaN	NaN	NaN	NaN	NaN	NaN	NaN	NaN	NaN	NaN	NaN	NaN	NaN	NaN	NaN	NaN	NaN
373	3.73	NaN	NaN	NaN	2.3174	0.91279	-0.081341	2.2375	0.42842	-0.33837	NaN	NaN	NaN	NaN	NaN	NaN	NaN	NaN	NaN	NaN	NaN	NaN	NaN	NaN	NaN	NaN	NaN	NaN	2.1859	0.24026	-0.33666	NaN	NaN	NaN	NaN	NaN	NaN	2.2047	0.0054625	-0.33559	2.225	0.015122	-0.28696	NaN	NaN	NaN	2.1542	0.024094	-0.24188	NaN	NaN	NaN	NaN	NaN	NaN	NaN	NaN	NaN	2.4181	0.054403	-0.092516	2.4319	0.2716	-0.057079	NaN	NaN	NaN	NaN	NaN	NaN	2.4344	0.032694	-0.095878	NaN	NaN	NaN	2.5272	0.024229	-0.043329	2.5682	0.044721	-0.075028	NaN	NaN	NaN	NaN	NaN	NaN	NaN	NaN	NaN	2.2084	1.3577	-0.034278	2.2743	1.3646	-0.37975	NaN	NaN	NaN	NaN	NaN	NaN	2.3219	0.96615	-0.48018	NaN	NaN	NaN	2.422	0.81403	-0.49556	2.158	1.2101	-0.012137	2.1107	1.0659	-0.0059033	2.1449	0.92543	0.055998	2.1317	0.84122	0.075506	2.1989	0.84255	0.064704	2.1706	0.79921	0.10311	2.2511	0.010054	-0.24682	NaN	NaN	NaN	NaN	NaN	NaN	NaN	NaN	NaN	NaN	NaN	NaN	NaN	NaN	NaN	NaN	NaN	NaN	NaN	NaN	NaN	NaN	NaN	NaN	NaN	NaN	NaN	NaN	NaN	NaN	NaN	NaN	NaN	NaN	NaN	NaN	NaN	NaN	NaN	NaN	NaN	NaN	NaN	NaN	NaN
